<?xml version="1.0" encoding="UTF-8" standalone="no"?>
<!DOCTYPE svg PUBLIC "-//W3C//DTD SVG 1.1//EN" "http://www.w3.org/Graphics/SVG/1.1/DTD/svg11.dtd">
<svg width="100%" height="100%" viewBox="0 0 681 361" version="1.1" xmlns="http://www.w3.org/2000/svg" xmlns:xlink="http://www.w3.org/1999/xlink" xml:space="preserve" style="fill-rule:evenodd;clip-rule:evenodd;stroke-linejoin:round;stroke-miterlimit:1.41421;">
    <g id="Group-5" transform="matrix(1,0,0,1,2,-26)">
        <g transform="matrix(1,0,0,1,0,242)">
            <g id="SOMETHING">
                <path d="M64.944,-120.672L64.944,0.144L-1.872,0.144L-1.872,-120.672L64.944,-120.672ZM57.312,-43.92C57.312,-47.664 56.592,-51.192 55.152,-54.504C53.712,-57.816 51.744,-60.696 49.248,-63.144C46.752,-65.592 43.824,-67.512 40.464,-68.904C37.104,-70.296 33.552,-70.992 29.808,-70.992C27.696,-70.992 25.92,-71.64 24.48,-72.936C23.04,-74.232 22.32,-75.888 22.32,-77.904C22.32,-78.384 22.416,-79.104 22.608,-80.064C23.088,-81.6 24,-82.848 25.344,-83.808C26.688,-84.768 28.176,-85.248 29.808,-85.248C31.824,-85.248 33.552,-84.528 34.992,-83.088C36.432,-81.648 37.152,-79.92 37.152,-77.904L57.312,-77.904C57.312,-81.648 56.592,-85.2 55.152,-88.56C53.712,-91.92 51.744,-94.872 49.248,-97.416C46.752,-99.96 43.824,-101.952 40.464,-103.392C37.104,-104.832 33.552,-105.552 29.808,-105.552C26.736,-105.552 23.784,-105.072 20.952,-104.112C18.12,-103.152 15.552,-101.808 13.248,-100.08C10.944,-98.352 8.952,-96.288 7.272,-93.888C5.592,-91.488 4.32,-88.896 3.456,-86.112C2.592,-83.52 2.16,-80.784 2.16,-77.904C2.16,-74.064 2.904,-70.512 4.392,-67.248C5.88,-63.984 7.872,-61.128 10.368,-58.68C12.864,-56.232 15.768,-54.312 19.08,-52.92C22.392,-51.528 25.968,-50.832 29.808,-50.832C31.824,-50.832 33.552,-50.184 34.992,-48.888C36.432,-47.592 37.152,-45.888 37.152,-43.776C37.152,-43.296 37.056,-42.576 36.864,-41.616C36.384,-40.08 35.496,-38.832 34.2,-37.872C32.904,-36.912 31.44,-36.432 29.808,-36.432C27.696,-36.432 25.92,-37.152 24.48,-38.592C23.04,-40.032 22.32,-41.808 22.32,-43.92L2.16,-43.92C2.16,-40.08 2.88,-36.48 4.32,-33.12C5.76,-29.76 7.728,-26.832 10.224,-24.336C12.72,-21.84 15.648,-19.872 19.008,-18.432C22.368,-16.992 25.968,-16.272 29.808,-16.272C32.88,-16.272 35.832,-16.752 38.664,-17.712C41.496,-18.672 44.064,-20.016 46.368,-21.744C48.672,-23.472 50.664,-25.536 52.344,-27.936C54.024,-30.336 55.296,-32.928 56.16,-35.712C56.928,-38.496 57.312,-41.232 57.312,-43.92Z" style="fill:rgb(0,170,200);fill-rule:nonzero;"/>
                <path d="M137.047,-120.816L137.047,0L56.839,0L56.839,-120.816L137.047,-120.816ZM131.863,-51.84L131.863,-59.04L131.863,-70.128L131.863,-72.864C131.479,-77.088 130.423,-81.072 128.695,-84.816C126.967,-88.56 124.663,-91.92 121.783,-94.896C118.519,-98.352 114.775,-101.016 110.551,-102.888C106.327,-104.76 101.911,-105.696 97.303,-105.696L97.159,-105.696C92.455,-105.696 87.991,-104.76 83.767,-102.888C79.543,-101.016 75.799,-98.352 72.535,-94.896C69.655,-91.824 67.375,-88.416 65.695,-84.672C64.015,-80.928 62.983,-76.944 62.599,-72.72L62.599,-51.84C62.695,-47.136 63.583,-42.648 65.263,-38.376C66.943,-34.104 69.367,-30.288 72.535,-26.928C75.895,-23.568 79.663,-20.952 83.839,-19.08C88.015,-17.208 92.455,-16.272 97.159,-16.272L97.303,-16.272C101.911,-16.272 106.327,-17.208 110.551,-19.08C114.775,-20.952 118.519,-23.568 121.783,-26.928C124.951,-30.288 127.399,-34.104 129.127,-38.376C130.855,-42.648 131.719,-47.136 131.719,-51.84L131.863,-51.84Z" style="fill:rgb(0,170,200);fill-rule:nonzero;"/>
                <path d="M129.806,-120.816L225.998,-120.816L225.998,0L129.806,0L129.806,-120.816ZM218.798,-105.552L218.942,-105.696L198.638,-105.696L198.638,-105.552L177.758,-45.36L156.878,-105.696L136.43,-105.696L136.43,-16.416L156.59,-16.416L156.59,-48.528L167.678,-16.416L187.838,-16.416L198.638,-47.52L198.638,-16.416L218.798,-16.416L218.798,-105.552Z" style="fill:rgb(0,170,200);fill-rule:nonzero;"/>
                <path d="M219.045,-120.816L284.997,-120.816L284.997,0L219.045,0L219.045,-120.816ZM279.093,-85.536L279.093,-105.696L224.373,-105.696L224.373,-16.416L279.093,-16.416L279.093,-36.576L244.533,-36.576L244.533,-50.976L270.021,-50.976L270.021,-71.136L244.533,-71.136L244.533,-85.536L279.093,-85.536Z" style="fill:rgb(0,170,200);fill-rule:nonzero;"/>
                <path d="M276.891,-120.672L347.883,-120.672L347.883,0.144L276.891,0.144L276.891,-120.672ZM342.555,-85.392L342.555,-105.552L281.787,-105.552L281.787,-85.392L302.091,-85.392L302.091,-16.272L322.251,-16.272L322.251,-85.392L342.555,-85.392Z" style="fill:rgb(0,170,200);fill-rule:nonzero;"/>
                <path d="M341.362,-120.816L417.394,-120.816L417.394,0L341.362,0L341.362,-120.816ZM410.482,-16.416L410.482,-105.696L390.322,-105.696L390.322,-71.136L366.418,-71.136L366.418,-105.696L346.258,-105.696L346.258,-16.416L366.418,-16.416L366.418,-50.976L390.322,-50.976L390.322,-16.416L410.482,-16.416Z" style="fill:rgb(0,170,200);fill-rule:nonzero;"/>
                <path d="M409.721,-120.816L444.137,-120.816L444.137,0L409.721,0L409.721,-120.816ZM436.793,-16.416L436.793,-105.696L416.633,-105.696L416.633,-16.416L436.793,-16.416Z" style="fill:rgb(0,170,200);fill-rule:nonzero;"/>
                <path d="M437.04,-120.816L514.656,-120.816L514.656,0L437.04,0L437.04,-120.816ZM508.752,-16.416L508.752,-105.696L488.592,-105.696L488.592,-55.872L463.536,-105.696L442.944,-105.696L442.944,-16.416L463.104,-16.416L463.104,-66.24L488.304,-16.416L508.752,-16.416Z" style="fill:rgb(0,170,200);fill-rule:nonzero;"/>
                <path d="M583.735,-120.816L583.735,0L507.415,0L507.415,-120.816L583.735,-120.816ZM579.271,-60.912L544.567,-60.912L544.567,-42.336L555.799,-42.336C554.455,-40.512 552.823,-39.096 550.903,-38.088C548.983,-37.08 546.871,-36.576 544.567,-36.576C542.551,-36.576 540.679,-36.984 538.951,-37.8C537.223,-38.616 535.711,-39.744 534.415,-41.184C533.119,-42.624 532.087,-44.28 531.319,-46.152C530.551,-48.024 530.167,-50.064 530.167,-52.272L530.167,-69.84C530.167,-71.952 530.551,-73.968 531.319,-75.888C532.087,-77.808 533.119,-79.488 534.415,-80.928C535.711,-82.368 537.223,-83.496 538.951,-84.312C540.679,-85.128 542.551,-85.536 544.567,-85.536C546.583,-85.536 548.479,-85.128 550.255,-84.312C552.031,-83.496 553.567,-82.368 554.863,-80.928C556.159,-79.488 557.191,-77.808 557.959,-75.888C558.727,-73.968 559.111,-71.952 559.111,-69.84L579.271,-69.84C579.271,-74.64 578.407,-79.2 576.679,-83.52C574.951,-87.84 572.503,-91.68 569.335,-95.04C565.975,-98.496 562.183,-101.136 557.959,-102.96C553.735,-104.784 549.319,-105.696 544.711,-105.696L544.567,-105.696C534.967,-105.696 526.759,-102.144 519.943,-95.04C516.775,-91.68 514.351,-87.864 512.671,-83.592C510.991,-79.32 510.103,-74.832 510.007,-70.128L510.007,-51.696C510.103,-46.992 511.015,-42.552 512.743,-38.376C514.471,-34.2 516.871,-30.432 519.943,-27.072C526.759,-19.968 534.967,-16.416 544.567,-16.416L544.711,-16.416C547.495,-16.416 550.207,-16.824 552.847,-17.64C555.487,-18.456 558.055,-19.584 560.551,-21.024L560.551,-16.416L579.127,-16.416L579.127,-49.968C579.127,-50.448 579.151,-50.856 579.199,-51.192C579.247,-51.528 579.271,-51.888 579.271,-52.272L579.271,-60.912Z" style="fill:rgb(0,170,200);fill-rule:nonzero;"/>
            </g>
        </g>
        <g transform="matrix(1,0,0,1,607,239)">
            <g id="_4">
                <path d="M71.28,-65.664L71.28,-41.472L58.32,-41.472L58.32,0L34.128,0L34.128,-41.472L-1.152,-41.472L-1.152,-65.664L34.128,-106.848L34.128,-107.136L58.32,-107.136L58.32,-65.664L71.28,-65.664Z" style="fill:rgb(0,170,200);fill-rule:nonzero;"/>
            </g>
        </g>
        <g transform="matrix(1,0,0,1,39,359)">
            <g id="GREAT">
                <path d="M54.816,-14.304C50.016,-11.424 44.352,-9.696 39.36,-9.696C25.632,-9.696 14.784,-20.16 14.784,-33.6C14.784,-46.944 25.536,-57.408 39.264,-57.408C46.272,-57.408 53.472,-54.528 58.656,-49.728L65.088,-58.08C58.464,-63.84 48.864,-67.488 39.264,-67.488C18.912,-67.488 3.264,-52.8 3.264,-33.6C3.264,-14.4 18.72,0.48 38.592,0.48C47.808,0.48 57.888,-3.072 64.704,-8.256L64.704,-33.024L54.816,-33.024L54.816,-14.304Z" style="fill:white;fill-rule:nonzero;"/>
                <path d="M134.03,0L118.958,-22.464C127.886,-25.92 132.878,-33.504 132.878,-44.256C132.878,-58.848 122.99,-67.2 105.806,-67.2L78.542,-67.2L78.542,0L89.87,0L89.87,-20.256L105.806,-20.256C106.862,-20.256 107.918,-20.256 108.878,-20.352L121.166,0L134.03,0ZM89.87,-30.432L89.87,-57.024L105.806,-57.024C116.174,-57.024 122.126,-52.8 122.126,-43.968C122.126,-34.848 116.174,-30.432 105.806,-30.432L89.87,-30.432Z" style="fill:white;fill-rule:nonzero;"/>
                <path d="M145.755,-67.2L145.755,0L194.907,0L194.907,-10.176L157.083,-10.176L157.083,-28.704L189.915,-28.704L189.915,-38.88L157.083,-38.88L157.083,-57.024L193.755,-57.024L193.755,-67.2L145.755,-67.2Z" style="fill:white;fill-rule:nonzero;"/>
                <path d="M256.361,0L268.457,0L239.081,-67.2L227.465,-67.2L197.801,0L209.609,0L216.041,-15.168L249.929,-15.168L256.361,0ZM220.265,-25.248L232.937,-55.104L245.609,-25.248L220.265,-25.248Z" style="fill:white;fill-rule:nonzero;"/>
                <path d="M260.599,-67.2L260.599,-57.024L281.815,-57.024L281.815,0L293.143,0L293.143,-57.024L314.455,-57.024L314.455,-67.2L260.599,-67.2Z" style="fill:white;fill-rule:nonzero;"/>
            </g>
        </g>
        <g transform="matrix(1,0,0,1,303,94)">
            <g id="DO-YOU">
                <path d="M36.384,-67.2L8.832,-67.2L8.832,0L36.096,0C56.448,0 71.136,-14.208 71.136,-33.6C71.136,-53.088 56.544,-67.2 36.384,-67.2ZM36.672,-10.176L20.16,-10.176L20.16,-57.024L36.192,-57.024C49.44,-57.024 59.712,-47.232 59.712,-33.504C59.712,-19.872 49.728,-10.176 36.672,-10.176Z" style="fill:white;fill-rule:nonzero;"/>
                <path d="M108.398,-67.488C88.334,-67.488 72.782,-52.896 72.782,-33.6C72.782,-14.4 88.334,0.48 108.398,0.48C128.462,0.48 144.014,-14.4 144.014,-33.6C144.014,-52.8 128.462,-67.488 108.398,-67.488ZM108.494,-57.312C121.646,-57.312 132.398,-46.944 132.398,-33.6C132.398,-20.256 121.646,-9.696 108.494,-9.696C95.342,-9.696 84.302,-20.256 84.302,-33.6C84.302,-46.944 95.246,-57.312 108.494,-57.312Z" style="fill:white;fill-rule:nonzero;"/>
                <path d="M228.713,-67.2L217.193,-67.2L198.377,-34.464L179.177,-67.2L167.753,-67.2L192.809,-21.984L192.809,0L204.041,0L204.041,-22.368L228.713,-67.2Z" style="fill:white;fill-rule:nonzero;"/>
                <path d="M262.615,-67.488C242.551,-67.488 226.999,-52.896 226.999,-33.6C226.999,-14.4 242.551,0.48 262.615,0.48C282.679,0.48 298.231,-14.4 298.231,-33.6C298.231,-52.8 282.679,-67.488 262.615,-67.488ZM262.711,-57.312C275.863,-57.312 286.615,-46.944 286.615,-33.6C286.615,-20.256 275.863,-9.696 262.711,-9.696C249.559,-9.696 238.519,-20.256 238.519,-33.6C238.519,-46.944 249.463,-57.312 262.711,-57.312Z" style="fill:white;fill-rule:nonzero;"/>
                <path d="M318.117,-27.84L318.117,-67.2L306.789,-67.2L306.789,-27.84C306.789,-10.272 317.925,0.48 336.069,0.48C354.213,0.48 365.253,-10.272 365.253,-27.84L365.253,-67.2L353.925,-67.2L353.925,-27.84C353.925,-16.416 347.109,-9.696 336.165,-9.696C325.125,-9.696 318.117,-16.512 318.117,-27.84Z" style="fill:white;fill-rule:nonzero;"/>
            </g>
        </g>
        <g transform="matrix(1,0,0,1,378,386)">
            <g id="GOOD">
                <path d="M75.6,-120.816L75.6,0L-0.72,0L-0.72,-120.816L75.6,-120.816ZM71.136,-60.912L36.432,-60.912L36.432,-42.336L47.664,-42.336C46.32,-40.512 44.688,-39.096 42.768,-38.088C40.848,-37.08 38.736,-36.576 36.432,-36.576C34.416,-36.576 32.544,-36.984 30.816,-37.8C29.088,-38.616 27.576,-39.744 26.28,-41.184C24.984,-42.624 23.952,-44.28 23.184,-46.152C22.416,-48.024 22.032,-50.064 22.032,-52.272L22.032,-69.84C22.032,-71.952 22.416,-73.968 23.184,-75.888C23.952,-77.808 24.984,-79.488 26.28,-80.928C27.576,-82.368 29.088,-83.496 30.816,-84.312C32.544,-85.128 34.416,-85.536 36.432,-85.536C38.448,-85.536 40.344,-85.128 42.12,-84.312C43.896,-83.496 45.432,-82.368 46.728,-80.928C48.024,-79.488 49.056,-77.808 49.824,-75.888C50.592,-73.968 50.976,-71.952 50.976,-69.84L71.136,-69.84C71.136,-74.64 70.272,-79.2 68.544,-83.52C66.816,-87.84 64.368,-91.68 61.2,-95.04C57.84,-98.496 54.048,-101.136 49.824,-102.96C45.6,-104.784 41.184,-105.696 36.576,-105.696L36.432,-105.696C26.832,-105.696 18.624,-102.144 11.808,-95.04C8.64,-91.68 6.216,-87.864 4.536,-83.592C2.856,-79.32 1.968,-74.832 1.872,-70.128L1.872,-51.696C1.968,-46.992 2.88,-42.552 4.608,-38.376C6.336,-34.2 8.736,-30.432 11.808,-27.072C18.624,-19.968 26.832,-16.416 36.432,-16.416L36.576,-16.416C39.36,-16.416 42.072,-16.824 44.712,-17.64C47.352,-18.456 49.92,-19.584 52.416,-21.024L52.416,-16.416L70.992,-16.416L70.992,-49.968C70.992,-50.448 71.016,-50.856 71.064,-51.192C71.112,-51.528 71.136,-51.888 71.136,-52.272L71.136,-60.912Z" style="fill:rgb(0,170,200);fill-rule:nonzero;"/>
                <path d="M149.431,-120.816L149.431,0L69.223,0L69.223,-120.816L149.431,-120.816ZM144.247,-51.84L144.247,-59.04L144.247,-70.128L144.247,-72.864C143.863,-77.088 142.807,-81.072 141.079,-84.816C139.351,-88.56 137.047,-91.92 134.167,-94.896C130.903,-98.352 127.159,-101.016 122.935,-102.888C118.711,-104.76 114.295,-105.696 109.687,-105.696L109.543,-105.696C104.839,-105.696 100.375,-104.76 96.151,-102.888C91.927,-101.016 88.183,-98.352 84.919,-94.896C82.039,-91.824 79.759,-88.416 78.079,-84.672C76.399,-80.928 75.367,-76.944 74.983,-72.72L74.983,-51.84C75.079,-47.136 75.967,-42.648 77.647,-38.376C79.327,-34.104 81.751,-30.288 84.919,-26.928C88.279,-23.568 92.047,-20.952 96.223,-19.08C100.399,-17.208 104.839,-16.272 109.543,-16.272L109.687,-16.272C114.295,-16.272 118.711,-17.208 122.935,-19.08C127.159,-20.952 130.903,-23.568 134.167,-26.928C137.335,-30.288 139.783,-34.104 141.511,-38.376C143.239,-42.648 144.103,-47.136 144.103,-51.84L144.247,-51.84Z" style="fill:rgb(0,170,200);fill-rule:nonzero;"/>
                <path d="M222.542,-120.816L222.542,0L142.334,0L142.334,-120.816L222.542,-120.816ZM217.358,-51.84L217.358,-59.04L217.358,-70.128L217.358,-72.864C216.974,-77.088 215.918,-81.072 214.19,-84.816C212.462,-88.56 210.158,-91.92 207.278,-94.896C204.014,-98.352 200.27,-101.016 196.046,-102.888C191.822,-104.76 187.406,-105.696 182.798,-105.696L182.654,-105.696C177.95,-105.696 173.486,-104.76 169.262,-102.888C165.038,-101.016 161.294,-98.352 158.03,-94.896C155.15,-91.824 152.87,-88.416 151.19,-84.672C149.51,-80.928 148.478,-76.944 148.094,-72.72L148.094,-51.84C148.19,-47.136 149.078,-42.648 150.758,-38.376C152.438,-34.104 154.862,-30.288 158.03,-26.928C161.39,-23.568 165.158,-20.952 169.334,-19.08C173.51,-17.208 177.95,-16.272 182.654,-16.272L182.798,-16.272C187.406,-16.272 191.822,-17.208 196.046,-19.08C200.27,-20.952 204.014,-23.568 207.278,-26.928C210.446,-30.288 212.894,-34.104 214.622,-38.376C216.35,-42.648 217.214,-47.136 217.214,-51.84L217.358,-51.84Z" style="fill:rgb(0,170,200);fill-rule:nonzero;"/>
                <path d="M294.069,-120.672L294.069,0.144L216.165,0.144L216.165,-120.672L294.069,-120.672ZM274.629,-29.232C278.949,-33.552 282.213,-38.4 284.421,-43.776C286.629,-49.152 287.733,-54.864 287.733,-60.912C287.733,-66.96 286.629,-72.672 284.421,-78.048C282.213,-83.424 278.949,-88.224 274.629,-92.448C270.309,-96.768 265.413,-100.032 259.941,-102.24C254.469,-104.448 248.709,-105.552 242.661,-105.552L224.661,-105.552L224.661,-16.272L245.397,-16.272C250.869,-16.56 256.101,-17.808 261.093,-20.016C266.085,-22.224 270.597,-25.296 274.629,-29.232Z" style="fill:rgb(0,170,200);fill-rule:nonzero;"/>
            </g>
        </g>
    </g>
</svg>
