<?xml version="1.0" encoding="UTF-8" standalone="no"?>
<!DOCTYPE svg PUBLIC "-//W3C//DTD SVG 1.1//EN" "http://www.w3.org/Graphics/SVG/1.1/DTD/svg11.dtd">
<svg width="100%" height="100%" viewBox="0 0 600 800" version="1.1" xmlns="http://www.w3.org/2000/svg" xmlns:xlink="http://www.w3.org/1999/xlink" xml:space="preserve" style="fill-rule:evenodd;clip-rule:evenodd;stroke-linejoin:round;stroke-miterlimit:1.41421;">
    <rect x="101" y="193.84" width="92.05" height="92.06" style="fill:white;"/>
    <rect x="204.56" y="147.8" width="92.06" height="92.06" style="fill:white;"/>
    <rect x="308.12" y="147.8" width="92.06" height="92.06" style="fill:white;"/>
    <rect x="308.12" y="44.25" width="92.06" height="92.05" style="fill:white;"/>
    <rect x="101" y="297.4" width="92.05" height="92.06" style="fill:white;"/>
    <rect x="204.56" y="251.37" width="92.06" height="92.06" style="fill:white;"/>
    <rect x="411.69" y="251.37" width="92.06" height="92.06" style="fill:white;"/>
    <rect x="411.69" y="352.94" width="92.06" height="92.06" style="fill:white;"/>
    <rect x="308.12" y="352.94" width="92.06" height="92.06" style="fill:white;"/>
    <path d="M91.48,500C82.24,500 74.973,503.273 69.68,509.82C64.387,516.367 61.74,525.407 61.74,536.94C61.74,549.007 64.287,558.137 69.38,564.33C74.473,570.523 81.84,573.62 91.48,573.62C95.549,573.629 99.608,573.21 103.59,572.37C107.49,571.543 111.55,570.477 115.77,569.17L115.77,583C107.36,586.033 98.469,587.514 89.53,587.37C75.13,587.37 64.073,583.007 56.36,574.28C48.647,565.553 44.787,553.063 44.78,536.81C44.78,526.583 46.653,517.633 50.4,509.96C53.891,502.565 59.563,496.411 66.65,492.33C73.737,488.25 82.07,486.21 91.65,486.21C101.302,486.122 110.843,488.29 119.51,492.54L113.72,505.93C110.304,504.322 106.787,502.939 103.19,501.79C99.404,500.585 95.453,499.981 91.48,500L91.48,500Z" style="fill:white;fill-rule:nonzero;"/>
    <path d="M194.41,548.65C194.41,560.81 191.293,570.297 185.06,577.11C178.827,583.923 170.16,587.333 159.06,587.34C152.601,587.469 146.226,585.84 140.62,582.63C135.253,579.457 130.963,574.742 128.31,569.1C125.326,562.704 123.851,555.707 124,548.65C124,536.583 127.097,527.163 133.29,520.39C139.483,513.617 148.21,510.23 159.47,510.23C170.237,510.23 178.76,513.697 185.04,520.63C191.32,527.563 194.443,536.903 194.41,548.65ZM140.24,548.65C140.24,565.83 146.573,574.42 159.24,574.42C171.8,574.42 178.08,565.83 178.08,548.65C178.08,531.65 171.747,523.15 159.08,523.15C152.413,523.15 147.603,525.347 144.65,529.74C141.697,534.133 140.227,540.437 140.24,548.65Z" style="fill:white;fill-rule:nonzero;"/>
    <path d="M269.07,586L260.46,549.66L258.46,538.66L257.11,529.85L256.71,529.85C254.51,542.41 253.03,550.327 252.27,553.6L244.51,586L216.85,586L196.06,509.76L222,509.76L228.16,539C229.892,547.242 231.038,555.596 231.59,564L232,564C232.133,559.873 233.367,552.023 235.7,540.45L242.77,509.7L271.84,509.7L278.3,540.86C279.988,548.506 281.29,556.233 282.2,564.01L282.6,564.01C282.867,560.603 283.317,556.353 283.95,551.26C284.4,547.138 285.085,543.044 286,539L292.73,509.73L318.1,509.73L297.2,586L269.07,586Z" style="fill:white;fill-rule:nonzero;"/>
    <path d="M394.81,547.71C394.81,560.183 391.457,569.907 384.75,576.88C378.043,583.853 368.657,587.34 356.59,587.34C345.017,587.34 335.81,583.773 328.97,576.64C322.13,569.507 318.707,559.863 318.7,547.71C318.7,535.283 322.053,525.617 328.76,518.71C335.467,511.803 344.88,508.373 357,508.42C363.917,508.281 370.755,509.927 376.85,513.2C382.544,516.337 387.173,521.105 390.14,526.89C393.373,533.344 394.976,540.493 394.81,547.71L394.81,547.71ZM345.42,547.71C345.42,554.257 346.293,559.257 348.04,562.71C349.787,566.163 352.727,567.88 356.86,567.86C360.94,567.86 363.823,566.143 365.51,562.71C367.197,559.277 368.037,554.277 368.03,547.71C368.03,541.203 367.177,536.29 365.47,532.97C363.763,529.65 360.847,527.983 356.72,527.97C352.68,527.97 349.787,529.62 348.04,532.92C346.293,536.22 345.42,541.15 345.42,547.71Z" style="fill:white;fill-rule:nonzero;"/>
    <path d="M448.95,508.42C451.138,508.412 453.323,508.593 455.48,508.96L456.96,509.23L454.6,534.06C451.658,533.443 448.655,533.171 445.65,533.25C439.91,533.25 435.737,534.563 433.13,537.19C430.523,539.817 429.223,543.597 429.23,548.53L429.23,586L402.92,586L402.92,509.76L422.5,509.76L426.61,521.94L427.89,521.94C430.053,517.939 433.216,514.565 437.07,512.15C440.588,509.789 444.714,508.493 448.95,508.42L448.95,508.42Z" style="fill:white;fill-rule:nonzero;"/>
    <path d="M486.2,543.14C488.704,539.053 491.421,535.101 494.34,531.3L511.43,509.77L540.77,509.77L514.32,542.2L542.46,586L512.38,586L495.69,558.68L487.14,565.21L487.14,586L460.7,586L460.7,481.3L487.15,481.3L487.15,522.48C487.159,529.393 486.665,536.298 485.67,543.14L486.21,543.14L486.2,543.14Z" style="fill:white;fill-rule:nonzero;"/>
    <path d="M158.5,701.26L138.78,701.26L90.4,622.87L89.86,622.87L90.2,627.24C90.827,635.587 91.14,643.213 91.14,650.12L91.14,701.26L76.54,701.26L76.54,602.88L96.05,602.88L144.3,680.88L144.7,680.88C144.613,679.847 144.433,676.09 144.16,669.61C143.887,663.13 143.753,658.073 143.76,654.44L143.76,602.88L158.5,602.88L158.5,701.26Z" style="fill:white;fill-rule:nonzero;"/>
    <path d="M175,607.12C174.842,604.718 175.682,602.354 177.32,600.59C179.129,598.962 181.522,598.135 183.95,598.3C186.333,598.157 188.675,598.983 190.44,600.59C192.078,602.354 192.918,604.718 192.76,607.12C192.89,609.467 192.051,611.768 190.44,613.48C188.684,615.105 186.338,615.944 183.95,615.8C181.518,615.957 179.124,615.119 177.32,613.48C175.709,611.768 174.87,609.467 175,607.12ZM191.76,701.26L175.9,701.26L175.9,626.84L191.71,626.84L191.71,701.26L191.76,701.26Z" style="fill:white;fill-rule:nonzero;"/>
    <path d="M254,701.26L250.84,690.9L250.3,690.9C246.713,695.433 243.103,698.517 239.47,700.15C235.837,701.783 231.17,702.603 225.47,702.61C218.137,702.61 212.43,700.637 208.35,696.69C204.27,692.743 202.217,687.157 202.19,679.93C202.19,672.257 205.04,666.47 210.74,662.57C216.44,658.67 225.107,656.54 236.74,656.18L249.59,655.78L249.59,651.78C249.59,647.027 248.48,643.47 246.26,641.11C244.04,638.75 240.62,637.58 236,637.6C232.268,637.582 228.556,638.149 225,639.28C221.553,640.391 218.182,641.728 214.91,643.28L209.79,632C213.967,629.821 218.407,628.188 223,627.14C227.454,626.082 232.012,625.529 236.59,625.49C246.057,625.49 253.2,627.553 258.02,631.68C262.84,635.807 265.25,642.29 265.25,651.13L265.25,701.26L254,701.26L254,701.26ZM230.45,690.49C236.19,690.49 240.8,688.887 244.28,685.68C247.76,682.473 249.497,677.977 249.49,672.19L249.49,665.73L239.94,666.13C232.493,666.397 227.077,667.643 223.69,669.87C220.303,672.097 218.61,675.493 218.61,680.06C218.61,683.393 219.61,685.963 221.61,687.77C223.61,689.577 226.557,690.483 230.45,690.49Z" style="fill:white;fill-rule:nonzero;"/>
    <path d="M343.33,626.84L343.33,635.52L330.61,637.87C331.872,639.636 332.848,641.59 333.5,643.66C334.27,646.006 334.655,648.461 334.64,650.93C334.64,658.603 331.993,664.637 326.7,669.03C321.407,673.423 314.117,675.62 304.83,675.62C302.665,675.638 300.502,675.458 298.37,675.08C294.957,677.187 293.253,679.653 293.26,682.48C293.217,684.12 294.16,685.634 295.65,686.32C297.243,687.173 300.17,687.6 304.43,687.6L317.43,687.6C325.637,687.6 331.873,689.35 336.14,692.85C340.407,696.35 342.533,701.4 342.52,708C342.52,716.433 339.043,722.937 332.09,727.51C325.137,732.083 315.087,734.37 301.94,734.37C291.8,734.37 284.06,732.577 278.72,728.99C273.38,725.403 270.713,720.29 270.72,713.65C270.603,709.386 272.162,705.241 275.06,702.11C277.953,698.99 282.003,696.827 287.21,695.62C285.089,694.71 283.278,693.202 282,691.28C280.688,689.444 279.972,687.247 279.95,684.99C279.873,682.43 280.706,679.924 282.3,677.92C284.298,675.636 286.664,673.703 289.3,672.2C285.415,670.52 282.137,667.689 279.91,664.09C277.454,660.148 276.202,655.573 276.31,650.93C276.31,642.857 278.857,636.6 283.95,632.16C289.043,627.72 296.3,625.5 305.72,625.5C307.937,625.508 310.151,625.655 312.35,625.94C314.107,626.134 315.851,626.438 317.57,626.85L343.34,626.85L343.33,626.84ZM284.86,712.84C284.788,716.118 286.576,719.169 289.47,720.71C292.543,722.55 296.877,723.47 302.47,723.47C311.083,723.47 317.5,722.237 321.72,719.77C325.94,717.303 328.05,714.03 328.05,709.95C328.05,706.717 326.893,704.417 324.58,703.05C322.267,701.683 317.953,701 311.64,701L299.64,701C295.107,701 291.507,702.067 288.84,704.2C286.212,706.274 284.731,709.485 284.86,712.83L284.86,712.84ZM291.66,650.93C291.66,655.597 292.86,659.187 295.26,661.7C297.66,664.213 301.103,665.47 305.59,665.47C314.743,665.47 319.32,660.58 319.32,650.8C319.32,645.953 318.187,642.22 315.92,639.6C313.653,636.98 310.21,635.667 305.59,635.66C301.017,635.66 297.55,636.96 295.19,639.56C292.83,642.16 291.65,645.95 291.65,650.93L291.66,650.93Z" style="fill:white;fill-rule:nonzero;"/>
    <path d="M396.8,701.26L393.64,690.9L393.1,690.9C389.513,695.433 385.903,698.517 382.27,700.15C378.637,701.783 373.97,702.603 368.27,702.61C360.937,702.61 355.23,700.637 351.15,696.69C347.07,692.743 345.02,687.157 345,679.93C345,672.257 347.85,666.47 353.55,662.57C359.25,658.67 367.917,656.54 379.55,656.18L392.4,655.78L392.4,651.78C392.4,647.027 391.29,643.47 389.07,641.11C386.85,638.75 383.407,637.573 378.74,637.58C375.008,637.562 371.296,638.129 367.74,639.26C364.293,640.371 360.922,641.708 357.65,643.26L352.59,632C356.785,629.834 361.242,628.218 365.85,627.19C370.304,626.132 374.862,625.579 379.44,625.54C388.907,625.54 396.05,627.603 400.87,631.73C405.69,635.857 408.1,642.34 408.1,651.18L408.1,701.31L396.8,701.31L396.8,701.26ZM373.25,690.49C378.99,690.49 383.6,688.887 387.08,685.68C390.56,682.473 392.297,677.977 392.29,672.19L392.29,665.73L382.74,666.13C375.293,666.397 369.877,667.643 366.49,669.87C363.103,672.097 361.41,675.493 361.41,680.06C361.41,683.393 362.41,685.963 364.41,687.77C366.41,689.577 369.357,690.483 373.25,690.49Z" style="fill:white;fill-rule:nonzero;"/>
    <path d="M461,625.49C463.639,625.439 466.277,625.664 468.87,626.16L467.32,640.9C465.027,640.355 462.677,640.083 460.32,640.09C453.993,640.09 448.867,642.153 444.94,646.28C441.013,650.407 439.05,655.767 439.05,662.36L439.05,701.25L423.29,701.25L423.29,626.84L435.67,626.84L437.75,640L438.56,640C440.863,635.737 444.181,632.106 448.22,629.43C451.995,626.88 456.444,625.508 461,625.49L461,625.49Z" style="fill:white;fill-rule:nonzero;"/>
    <path d="M522.38,701.26L519.22,690.9L518.68,690.9C515.093,695.433 511.483,698.517 507.85,700.15C504.217,701.783 499.55,702.603 493.85,702.61C486.517,702.61 480.81,700.637 476.73,696.69C472.65,692.743 470.597,687.157 470.57,679.93C470.57,672.257 473.42,666.47 479.12,662.57C484.82,658.67 493.487,656.54 505.12,656.18L517.97,655.78L517.97,651.78C517.97,647.027 516.86,643.47 514.64,641.11C512.42,638.75 508.977,637.573 504.31,637.58C500.578,637.562 496.866,638.129 493.31,639.26C489.863,640.371 486.492,641.708 483.22,643.26L478.17,632C482.365,629.834 486.822,628.218 491.43,627.19C495.875,626.117 500.427,625.547 505,625.49C514.467,625.49 521.61,627.553 526.43,631.68C531.25,635.807 533.66,642.29 533.66,651.13L533.66,701.26L522.36,701.26L522.38,701.26ZM498.83,690.49C504.57,690.49 509.18,688.887 512.66,685.68C516.14,682.473 517.877,677.977 517.87,672.19L517.87,665.73L508.32,666.13C500.873,666.397 495.457,667.643 492.07,669.87C488.683,672.097 486.993,675.493 487,680.06C487,683.393 488,685.963 490,687.77C492,689.577 494.94,690.483 498.82,690.49L498.83,690.49Z" style="fill:white;fill-rule:nonzero;"/>
</svg>
