<?xml version="1.0" encoding="UTF-8" standalone="no"?>
<!DOCTYPE svg PUBLIC "-//W3C//DTD SVG 1.1//EN" "http://www.w3.org/Graphics/SVG/1.1/DTD/svg11.dtd">
<svg width="100%" height="100%" viewBox="0 0 727 369" version="1.1" xmlns="http://www.w3.org/2000/svg" xmlns:xlink="http://www.w3.org/1999/xlink" xml:space="preserve" style="fill-rule:evenodd;clip-rule:evenodd;stroke-linejoin:round;stroke-miterlimit:1.41421;">
    <g id="Group-6">
        <g id="Group">
            <path id="Shape" d="M125.775,243.026L131.58,243.026C157.38,243.026 180.385,232.839 196.51,216.624C212.85,200.616 222.525,178.579 222.525,155.088C222.525,146.772 221.235,138.456 218.655,129.933L218.655,129.725L218.225,128.477C214.785,117.667 209.84,107.272 203.605,97.501L149.21,11.018C144.48,3.742 136.525,0 128.785,0C121.045,0 112.875,3.742 108.36,11.018L53.535,97.501C47.3,107.272 42.57,117.667 38.915,128.477L38.7,129.725L38.7,129.933C36.12,138.248 34.83,146.772 34.83,155.088C34.83,178.579 44.72,200.408 60.845,216.624C77.185,232.631 99.975,243.026 125.775,243.026ZM96.535,213.505C88.795,205.813 84.28,195.627 84.28,184.608C84.28,180.451 84.925,176.293 86.215,172.135C87.935,166.522 90.515,161.324 93.74,156.335L128.785,100.828L163.83,156.335C167.055,161.324 169.42,166.522 171.355,172.135C172.645,176.293 173.29,180.658 173.29,184.608C173.29,195.627 168.775,206.021 161.035,213.505C155.66,218.911 148.78,222.653 140.825,224.524C137.815,224.939 134.805,225.147 131.795,225.147L125.99,225.147C122.98,225.147 119.755,224.939 116.96,224.524C108.79,222.653 101.91,218.911 96.535,213.505ZM56.545,133.883C59.555,124.32 63.855,115.38 69.23,106.857L124.055,20.373C125.13,18.502 126.85,17.879 128.785,17.879C130.72,17.879 132.44,18.71 133.515,20.373L188.34,106.857C193.715,115.38 198.015,124.32 201.025,133.883C203.39,140.951 204.465,148.227 204.465,155.088C204.465,173.798 196.725,191.261 183.61,204.15C180.6,207.061 177.375,209.763 173.935,212.05C179.31,204.15 182.535,194.587 182.535,184.608C182.535,179.619 181.675,174.422 180.17,169.432C178.235,163.195 175.225,157.167 171.785,151.761L136.095,95.63C134.375,92.928 131.58,91.681 128.57,91.681C125.775,91.681 122.765,93.136 121.045,95.63L85.57,151.761C82.13,157.374 79.335,163.195 77.185,169.432C75.465,174.422 74.82,179.619 74.82,184.608C74.82,194.587 77.83,204.15 83.42,212.05C79.98,209.763 76.755,207.061 73.745,204.15C60.63,191.261 52.89,173.798 52.89,155.088C53.105,148.019 54.18,140.951 56.545,133.883Z" style="fill:white;"/>
            <path id="Shape1" d="M21.715,295.207C26.445,297.078 31.82,294.791 33.54,290.218C34.4,288.139 34.4,285.852 33.54,283.773C32.68,281.486 30.96,279.615 28.38,278.784C25.155,277.536 22.575,275.457 20.855,272.963C19.135,270.468 18.275,267.349 18.275,264.439C18.275,263.607 18.49,262.776 18.49,261.944L52.675,275.042C55.04,275.873 57.62,274.834 58.695,272.547C59.555,270.26 58.48,267.765 56.115,266.726L22.575,253.836C22.79,253.629 22.79,253.629 23.005,253.421C26.015,250.51 30.1,248.847 34.185,248.847C36.12,248.847 38.055,249.263 39.99,249.887L81.055,265.686L90.3,269.221C95.03,271.092 100.405,268.805 102.125,264.231C104.06,259.657 101.695,254.46 96.965,252.797L46.655,233.463C42.57,231.8 38.27,231.176 33.97,231.176C25.155,231.176 16.34,234.503 9.675,240.947C3.225,247.392 0,256.123 0,264.231C0,270.676 1.935,276.913 5.59,282.526C9.245,287.931 14.835,292.504 21.715,295.207Z" style="fill:rgb(0,170,200);"/>
            <path id="Shape2" d="M234.78,306.017C230.265,303.731 224.675,305.394 222.31,309.76C221.02,312.254 221.02,314.957 222.095,317.244C222.955,319.115 224.245,320.778 226.18,321.817C231.555,324.52 234.565,329.925 234.78,335.33L212.42,326.807C210.055,325.975 207.475,327.015 206.4,329.301C205.54,331.588 206.615,334.083 208.98,335.122L232.2,343.854C231.555,344.685 230.91,345.517 230.05,346.349C227.04,349.259 222.955,350.922 218.87,350.922C216.935,350.922 215,350.506 213.065,349.883L176.3,335.746L167.485,332.42C162.755,330.549 157.38,332.836 155.66,337.409C153.725,341.983 156.09,347.18 160.82,348.843L206.185,366.306C210.27,367.969 214.57,368.593 218.87,368.593C227.685,368.593 236.5,365.267 243.165,358.822C250.045,352.377 253.27,343.646 253.27,335.538C253.485,323.688 246.82,312.046 234.78,306.017Z" style="fill:rgb(0,170,200);"/>
            <path id="Shape3" d="M232.415,286.891L235.855,295.207C242.735,292.504 248.325,287.931 251.98,282.526C255.635,277.12 257.57,270.676 257.57,264.231C257.57,255.915 254.345,247.392 247.465,240.947C241.015,234.71 232.2,231.176 223.17,231.176C218.87,231.176 214.57,232.008 210.485,233.463L25.585,304.562C18.705,307.265 13.115,311.838 9.46,317.244C5.805,322.649 3.87,329.094 3.87,335.538C3.87,343.854 7.095,352.377 13.975,358.822C20.425,365.059 29.24,368.593 38.27,368.593C42.57,368.593 46.87,367.761 50.955,366.306L235.855,295.207L232.415,286.891ZM229.19,278.784L44.29,349.883C42.355,350.714 40.42,350.922 38.485,350.922C34.4,350.922 30.315,349.259 27.305,346.349C26.875,345.933 26.445,345.309 26.015,344.893L239.295,262.984C239.295,263.4 239.51,264.023 239.51,264.439C239.51,267.349 238.65,270.468 236.93,272.963C234.78,275.457 232.415,277.328 229.19,278.784ZM22.36,335.538C22.36,332.628 23.22,329.509 24.94,327.015C26.66,324.52 29.025,322.441 32.465,321.194L217.365,250.094C219.3,249.263 221.235,249.055 223.17,249.055C227.255,249.055 231.34,250.718 234.35,253.629C234.78,254.044 234.995,254.46 235.21,254.668L22.36,336.578C22.575,336.162 22.36,335.746 22.36,335.538Z" style="fill:rgb(0,170,200);"/>
        </g>
        <g transform="matrix(1,0,0,1,287,167)">
            <g id="DEMO">
                <path d="M54.576,-100.8L13.248,-100.8L13.248,0L54.144,0C84.672,0 106.704,-21.312 106.704,-50.4C106.704,-79.632 84.816,-100.8 54.576,-100.8ZM55.008,-15.264L30.24,-15.264L30.24,-85.536L54.288,-85.536C74.16,-85.536 89.568,-70.848 89.568,-50.256C89.568,-29.808 74.592,-15.264 55.008,-15.264Z" style="fill:rgb(0,170,200);fill-rule:nonzero;"/>
                <path d="M119.911,-100.8L119.911,0L193.639,0L193.639,-15.264L136.903,-15.264L136.903,-43.056L186.151,-43.056L186.151,-58.32L136.903,-58.32L136.903,-85.536L191.911,-85.536L191.911,-100.8L119.911,-100.8Z" style="fill:rgb(0,170,200);fill-rule:nonzero;"/>
                <path d="M209.438,-100.8L209.438,0L225.422,0L225.422,-75.312L257.246,-10.512L268.334,-10.512L300.158,-75.312L300.302,0L315.998,0L315.998,-100.8L295.982,-100.8L262.862,-33.84L229.598,-100.8L209.438,-100.8Z" style="fill:rgb(0,170,200);fill-rule:nonzero;"/>
                <path d="M382.773,-101.232C352.677,-101.232 329.349,-79.344 329.349,-50.4C329.349,-21.6 352.677,0.72 382.773,0.72C412.869,0.72 436.197,-21.6 436.197,-50.4C436.197,-79.2 412.869,-101.232 382.773,-101.232ZM382.917,-85.968C402.645,-85.968 418.773,-70.416 418.773,-50.4C418.773,-30.384 402.645,-14.544 382.917,-14.544C363.189,-14.544 346.629,-30.384 346.629,-50.4C346.629,-70.416 363.045,-85.968 382.917,-85.968Z" style="fill:rgb(0,170,200);fill-rule:nonzero;"/>
            </g>
        </g>
        <g transform="matrix(1,0,0,1,288,297)">
            <g id="CAMP">
                <path d="M88.652,-75.332L98.864,-88.06C88.8,-97.976 74.148,-104.044 59.496,-104.044C28.86,-104.044 5.032,-81.4 5.032,-51.948C5.032,-22.2 28.564,0.74 58.904,0.74C73.556,0.74 88.504,-5.92 99.012,-16.28L88.652,-27.824C80.808,-20.276 70.152,-15.54 59.792,-15.54C39.072,-15.54 22.792,-31.672 22.792,-52.096C22.792,-72.52 39.072,-88.504 59.792,-88.504C70.3,-88.504 81.104,-83.472 88.652,-75.332Z" style="fill:white;fill-rule:nonzero;"/>
                <path d="M187.629,0L206.277,0L160.989,-103.6L143.081,-103.6L97.349,0L115.553,0L125.469,-23.384L177.713,-23.384L187.629,0ZM131.981,-38.924L151.517,-84.952L171.053,-38.924L131.981,-38.924Z" style="fill:white;fill-rule:nonzero;"/>
                <path d="M214.826,-103.6L214.826,0L231.254,0L231.254,-77.404L263.962,-10.804L275.358,-10.804L308.066,-77.404L308.214,0L324.346,0L324.346,-103.6L303.774,-103.6L269.734,-34.78L235.546,-103.6L214.826,-103.6Z" style="fill:white;fill-rule:nonzero;"/>
                <path d="M387.802,-103.6L346.51,-103.6L346.51,0L363.974,0L363.974,-31.228L387.802,-31.228C413.85,-31.228 428.798,-44.844 428.798,-68.228C428.798,-90.724 413.85,-103.6 387.802,-103.6ZM387.062,-46.916L363.974,-46.916L363.974,-87.912L387.062,-87.912C403.046,-87.912 412.074,-81.4 412.074,-67.784C412.074,-53.724 403.046,-46.916 387.062,-46.916Z" style="fill:white;fill-rule:nonzero;"/>
            </g>
        </g>
    </g>
</svg>
