<?xml version="1.0" encoding="UTF-8" standalone="no"?>
<!DOCTYPE svg PUBLIC "-//W3C//DTD SVG 1.1//EN" "http://www.w3.org/Graphics/SVG/1.1/DTD/svg11.dtd">
<svg width="100%" height="100%" viewBox="0 0 693 298" version="1.1" xmlns="http://www.w3.org/2000/svg" xmlns:xlink="http://www.w3.org/1999/xlink" xml:space="preserve" style="fill-rule:evenodd;clip-rule:evenodd;stroke-linejoin:round;stroke-miterlimit:1.41421;">
    <g id="Group-2" transform="matrix(1,0,0,1,-13,0)">
        <g transform="matrix(1,0,0,1,0,167)">
            <g id="DEV">
                <path d="M54.576,-100.8L13.248,-100.8L13.248,0L54.144,0C84.672,0 106.704,-21.312 106.704,-50.4C106.704,-79.632 84.816,-100.8 54.576,-100.8ZM55.008,-15.264L30.24,-15.264L30.24,-85.536L54.288,-85.536C74.16,-85.536 89.568,-70.848 89.568,-50.256C89.568,-29.808 74.592,-15.264 55.008,-15.264Z" style="fill:white;fill-rule:nonzero;"/>
                <path d="M119.911,-100.8L119.911,0L193.639,0L193.639,-15.264L136.903,-15.264L136.903,-43.056L186.151,-43.056L186.151,-58.32L136.903,-58.32L136.903,-85.536L191.911,-85.536L191.911,-100.8L119.911,-100.8Z" style="fill:white;fill-rule:nonzero;"/>
                <path d="M196.622,-100.8L236.798,0L254.366,0L295.118,-100.8L277.406,-100.8L246.014,-18.864L214.91,-100.8L196.622,-100.8Z" style="fill:white;fill-rule:nonzero;"/>
            </g>
        </g>
        <g transform="matrix(1,0,0,1,429,167)">
            <g id="TRX">
                <path d="M1.296,-100.8L1.296,-85.536L33.12,-85.536L33.12,0L50.112,0L50.112,-85.536L82.08,-85.536L82.08,-100.8L1.296,-100.8Z" style="fill:white;fill-rule:nonzero;"/>
                <path d="M174.919,0L152.311,-33.696C165.703,-38.88 173.191,-50.256 173.191,-66.384C173.191,-88.272 158.359,-100.8 132.583,-100.8L91.687,-100.8L91.687,0L108.679,0L108.679,-30.384L132.583,-30.384C134.167,-30.384 135.751,-30.384 137.191,-30.528L155.623,0L174.919,0ZM108.679,-45.648L108.679,-85.536L132.583,-85.536C148.135,-85.536 157.063,-79.2 157.063,-65.952C157.063,-52.272 148.135,-45.648 132.583,-45.648L108.679,-45.648Z" style="fill:white;fill-rule:nonzero;"/>
                <path d="M182.366,-100.8L216.494,-51.696L179.774,0L199.646,0L226.718,-38.016L253.934,0L274.238,0L237.518,-52.416L271.358,-100.8L251.486,-100.8L226.718,-65.808L202.094,-100.8L182.366,-100.8Z" style="fill:white;fill-rule:nonzero;"/>
            </g>
        </g>
        <path id="Symbol" d="M421.117,1L387.039,96L429.087,96L296.039,298L342.039,153L296,153L342,0L421.117,1Z" style="fill:rgb(0,170,200);"/>
    </g>
</svg>
