<?xml version="1.0" encoding="UTF-8" standalone="no"?>
<!DOCTYPE svg PUBLIC "-//W3C//DTD SVG 1.1//EN" "http://www.w3.org/Graphics/SVG/1.1/DTD/svg11.dtd">
<svg width="100%" height="100%" viewBox="0 0 600 800" version="1.1" xmlns="http://www.w3.org/2000/svg" xmlns:xlink="http://www.w3.org/1999/xlink" xml:space="preserve" style="fill-rule:evenodd;clip-rule:evenodd;stroke-linejoin:round;stroke-miterlimit:1.41421;">
    <g transform="matrix(4.71206,0,0,4.71206,-1117.5,-1025.6)">
        <clipPath id="_clip1">
            <path d="M353.135,235.392C351.132,235.462 349.348,236.334 348.077,237.688L348.067,237.679L245.194,355.398C243.48,357.129 242.433,359.52 242.464,362.149C242.524,367.362 246.8,371.54 252.014,371.48C254.887,371.447 257.445,370.132 259.152,368.089C259.153,368.088 259.155,368.088 259.155,368.088L358.696,247.679C359.985,246.311 360.749,244.449 360.678,242.422C360.539,238.485 357.303,235.387 353.395,235.387C353.309,235.387 353.222,235.389 353.135,235.392Z"/>
        </clipPath>
        <g clip-path="url(#_clip1)">
            <path d="M237.746,364.391L346.405,226.782L364.268,240.887L255.609,378.496L237.746,364.391Z" style="fill:white;fill-rule:nonzero;"/>
        </g>
    </g>
    <g transform="matrix(1.1309,0,0,1.1309,-35.8282,-48.1572)">
        <path d="M394.81,547.71C394.81,560.183 391.457,569.907 384.75,576.88C378.043,583.853 368.657,587.34 356.59,587.34C345.017,587.34 335.81,583.773 328.97,576.64C322.13,569.507 318.707,559.863 318.7,547.71C318.7,535.283 322.053,525.617 328.76,518.71C335.467,511.803 344.88,508.373 357,508.42C363.917,508.281 370.755,509.927 376.85,513.2C382.544,516.337 387.173,521.105 390.14,526.89C393.373,533.344 394.976,540.493 394.81,547.71L394.81,547.71ZM345.42,547.71C345.42,554.257 346.293,559.257 348.04,562.71C349.787,566.163 352.727,567.88 356.86,567.86C360.94,567.86 363.823,566.143 365.51,562.71C367.197,559.277 368.037,554.277 368.03,547.71C368.03,541.203 367.177,536.29 365.47,532.97C363.763,529.65 360.847,527.983 356.72,527.97C352.68,527.97 349.787,529.62 348.04,532.92C346.293,536.22 345.42,541.15 345.42,547.71Z" style="fill:white;fill-rule:nonzero;"/>
    </g>
    <g transform="matrix(4.71206,0,0,4.71206,-1117.5,-1025.6)">
        <clipPath id="_clip2">
            <path d="M353.138,235.392C351.998,235.432 350.928,235.733 349.984,236.234C349.953,236.243 349.937,236.249 349.937,236.249L264.234,278.406C262.024,279.386 260.544,281.658 260.692,284.213C260.884,287.506 263.708,290.02 267,289.828C267.872,289.778 268.688,289.541 269.415,289.161C269.423,289.161 269.428,289.16 269.428,289.16L356.062,249.456C358.856,248.357 360.789,245.589 360.678,242.417C360.539,238.483 357.305,235.387 353.399,235.387C353.312,235.387 353.226,235.389 353.138,235.392Z"/>
        </clipPath>
        <g clip-path="url(#_clip2)">
            <path d="M257.892,281.413L357.584,232.465L364.118,245.773L264.427,294.721L257.892,281.413Z" style="fill:white;fill-rule:nonzero;"/>
        </g>
    </g>
    <g transform="matrix(4.71206,0,0,4.71206,-1117.5,-1025.6)">
        <clipPath id="_clip3">
            <path d="M266.314,278.213C263.018,278.405 260.5,281.231 260.692,284.528C260.769,285.845 261.266,287.036 262.046,287.981C262.05,288.007 262.053,288.02 262.053,288.02L318.477,357.994C320.623,360.865 324.058,362.715 327.918,362.689C334.371,362.647 339.567,357.381 339.524,350.928C339.503,347.601 338.091,344.607 335.844,342.494L271.019,280.089C269.923,278.924 268.37,278.203 266.667,278.203C266.55,278.203 266.433,278.206 266.314,278.213Z"/>
        </clipPath>
        <g clip-path="url(#_clip3)">
            <path d="M269.954,271.904L345.353,352.355L327.941,368.673L252.543,288.223L269.954,271.904Z" style="fill:white;fill-rule:nonzero;"/>
        </g>
    </g>
    <g transform="matrix(4.71206,0,0,4.71206,-1117.5,-1025.6)">
        <rect x="268.351" y="286.028" width="51.024" height="51.024" style="fill:rgb(14,27,51);fill-rule:nonzero;"/>
    </g>
    <g transform="matrix(4.71206,0,0,4.71206,-1117.5,-1025.6)">
        <rect x="272.752" y="327.485" width="19.134" height="3.189" style="fill:white;fill-rule:nonzero;"/>
    </g>
    <g transform="matrix(4.71206,0,0,4.71206,-1117.5,-1025.6)">
        <path d="M272.537,299.464L274.022,298.062C274.426,298.549 274.806,298.834 275.329,298.834C275.899,298.834 276.267,298.442 276.267,297.67L276.267,292.407L278.56,292.407L278.56,297.682C278.56,298.727 278.299,299.464 277.741,300.022C277.194,300.569 276.41,300.866 275.46,300.866C274.01,300.866 273.131,300.26 272.537,299.464" style="fill:white;fill-rule:nonzero;"/>
    </g>
    <g transform="matrix(4.71206,0,0,4.71206,-1117.5,-1025.6)">
        <path d="M279.095,292.407L285.784,292.407L285.784,294.355L281.376,294.355L281.376,295.627L285.368,295.627L285.368,297.444L281.376,297.444L281.376,298.763L285.843,298.763L285.843,300.723L279.095,300.723L279.095,292.407Z" style="fill:white;fill-rule:nonzero;"/>
    </g>
    <g transform="matrix(4.71206,0,0,4.71206,-1117.5,-1025.6)">
        <path d="M288.796,294.426L286.313,294.426L286.313,292.406L293.596,292.406L293.596,294.426L291.101,294.426L291.101,300.723L288.796,300.723L288.796,294.426Z" style="fill:white;fill-rule:nonzero;"/>
    </g>
    <g transform="matrix(4.71206,0,0,4.71206,-1117.5,-1025.6)">
        <path d="M277.883,308.369C277.883,308.856 277.491,309.129 276.778,309.129L274.996,309.129L274.996,307.597L276.754,307.597C277.527,307.597 277.883,307.894 277.883,308.345L277.883,308.369ZM274.996,304.52L276.505,304.52C277.182,304.52 277.55,304.769 277.55,305.233L277.55,305.256C277.55,305.743 277.146,305.981 276.446,305.981L274.996,305.981L274.996,304.52ZM278.536,306.635C279.273,306.314 279.82,305.743 279.82,304.781L279.82,304.757C279.82,304.187 279.618,303.748 279.285,303.403C278.798,302.928 278.061,302.666 277.016,302.666L272.751,302.666L272.751,310.983L277.04,310.983C279.024,310.983 280.188,310.115 280.188,308.69L280.188,308.666C280.188,307.537 279.546,306.967 278.536,306.635" style="fill:white;fill-rule:nonzero;"/>
    </g>
    <g transform="matrix(4.71206,0,0,4.71206,-1117.5,-1025.6)">
        <path d="M285.605,305.672C285.605,306.278 285.142,306.658 284.369,306.658L282.837,306.658L282.837,304.65L284.358,304.65C285.118,304.65 285.605,304.983 285.605,305.648L285.605,305.672ZM286.199,308.084C287.233,307.644 287.91,306.801 287.91,305.518L287.91,305.494C287.91,304.674 287.66,304.044 287.173,303.557C286.615,302.999 285.736,302.666 284.465,302.666L280.532,302.666L280.532,310.983L282.837,310.983L282.837,308.464L283.859,308.464L285.534,310.983L288.183,310.983L286.199,308.084Z" style="fill:white;fill-rule:nonzero;"/>
    </g>
    <g transform="matrix(4.71206,0,0,4.71206,-1117.5,-1025.6)">
        <path d="M290.761,307.692L291.7,305.34L292.626,307.692L290.761,307.692ZM292.828,302.607L290.607,302.607L287.078,310.983L289.49,310.983L290.084,309.486L293.303,309.486L293.897,310.983L296.369,310.983L292.828,302.607Z" style="fill:white;fill-rule:nonzero;"/>
    </g>
    <g transform="matrix(4.71206,0,0,4.71206,-1117.5,-1025.6)">
        <rect x="296.641" y="302.667" width="2.305" height="8.316" style="fill:white;fill-rule:nonzero;"/>
    </g>
    <g transform="matrix(4.71206,0,0,4.71206,-1117.5,-1025.6)">
        <path d="M299.516,302.667L301.666,302.667L305.088,307.063L305.088,302.667L307.369,302.667L307.369,310.983L305.361,310.983L301.797,306.421L301.797,310.983L299.516,310.983L299.516,302.667Z" style="fill:white;fill-rule:nonzero;"/>
    </g>
    <g transform="matrix(4.71206,0,0,4.71206,-1117.5,-1025.6)">
        <path d="M307.514,309.747L308.797,308.214C309.629,308.868 310.532,309.212 311.494,309.212C312.123,309.212 312.456,308.999 312.456,308.642L312.456,308.618C312.456,308.262 312.183,308.084 311.042,307.81C309.272,307.407 307.906,306.908 307.906,305.209L307.906,305.185C307.906,303.641 309.13,302.524 311.126,302.524C312.539,302.524 313.644,302.904 314.547,303.629L313.395,305.256C312.634,304.71 311.803,304.437 311.066,304.437C310.508,304.437 310.235,304.662 310.235,304.971L310.235,304.995C310.235,305.375 310.52,305.541 311.684,305.803C313.585,306.219 314.773,306.836 314.773,308.393L314.773,308.416C314.773,310.115 313.43,311.125 311.411,311.125C309.938,311.125 308.548,310.662 307.514,309.747" style="fill:white;fill-rule:nonzero;"/>
    </g>
</svg>
